# xmcd
#
# Track frame offsets: 
#        150
#        29449
#        59656
#
# Disc length: 1647 seconds
#
# Revision: 1
# Processed by: cddbd v1.5.2PL0 Copyright (c) Steve Scherf et al.
# Submitted via: ExactAudioCopy v1.3
#
DISCID=25066d03
DTITLE=Banda Machos - Disco Macho
DYEAR=1994
DGENRE=Banda
TTITLE0=Al Gato Y Al Raton
TTITLE1=Las Nachas
TTITLE2=Macho Remix
EXTD=
EXTT0=
EXTT1=
EXTT2=
PLAYORDER=
